<svg width="35" height="35" viewBox="0 0 35 35" fill="none" xmlns="http://www.w3.org/2000/svg">
<path fill-rule="evenodd" clip-rule="evenodd" d="M8.52393 24.7172V23.2501C8.57938 22.1608 9.23421 21.192 10.2243 20.7345C14.8935 18.859 20.1065 18.859 24.7756 20.7345C25.7657 21.192 26.4206 22.1608 26.476 23.2501V24.7172C26.4756 25.5114 26.1596 26.2728 25.5975 26.8338C25.0354 27.3948 24.2733 27.7094 23.4791 27.7082H11.5208C10.7266 27.7094 9.96458 27.3948 9.40247 26.8338C8.84036 26.2728 8.52431 25.5114 8.52393 24.7172Z" fill="#B8B5B0" fill-opacity="0.8"/>
<path fill-rule="evenodd" clip-rule="evenodd" d="M17.5 7.29163C15.4826 7.29104 13.6635 8.50583 12.8911 10.3695C12.1186 12.2331 12.545 14.3786 13.9713 15.8053C15.3976 17.232 17.5429 17.659 19.4068 16.8871C21.2707 16.1152 22.486 14.2965 22.486 12.2791C22.4864 10.9565 21.9613 9.6879 21.0261 8.75252C20.091 7.81714 18.8226 7.29163 17.5 7.29163Z" fill="#B8B5B0" fill-opacity="0.8"/>
</svg>
