<svg width="35" height="35" viewBox="0 0 35 35" fill="none" xmlns="http://www.w3.org/2000/svg">
<path fill-rule="evenodd" clip-rule="evenodd" d="M17.5001 7.29167C11.8622 7.29167 7.29175 11.8621 7.29175 17.5C7.29175 23.1379 11.8622 27.7083 17.5001 27.7083C23.138 27.7083 27.7084 23.1379 27.7084 17.5C27.7084 14.7926 26.6329 12.1961 24.7185 10.2816C22.804 8.36719 20.2075 7.29167 17.5001 7.29167Z" fill="#C1C7D0"/>
<path fill-rule="evenodd" clip-rule="evenodd" d="M22.1667 14.1196L20.4269 19.285C20.2445 19.8213 19.8204 20.2405 19.2821 20.4167L14.0802 22.1375C13.7241 22.2543 13.3326 22.16 13.0687 21.8939C12.8048 21.6278 12.7137 21.2356 12.8333 20.8804L14.5731 15.7165C14.756 15.1801 15.1798 14.7607 15.7179 14.5833L20.9198 12.864C21.2759 12.7472 21.6674 12.8415 21.9313 13.1076C22.1952 13.3736 22.2863 13.7659 22.1667 14.121V14.1196Z" fill="white"/>
</svg>
