<svg width="35" height="35" viewBox="0 0 35 35" fill="#000" xmlns="http://www.w3.org/2000/svg">
<path fill-rule="evenodd" clip-rule="evenodd" d="M23.6251 27.7083C25.8802 27.7083 27.7084 25.8802 27.7084 23.625C27.7084 21.3698 25.8802 19.5417 23.6251 19.5417C21.3699 19.5417 19.5417 21.3698 19.5417 23.625C19.5417 25.8802 21.3699 27.7083 23.6251 27.7083ZM23.6251 15.4583C25.8802 15.4583 27.7084 13.6302 27.7084 11.375C27.7084 9.11984 25.8802 7.29167 23.6251 7.29167C21.3699 7.29167 19.5417 9.11984 19.5417 11.375C19.5417 13.6302 21.3699 15.4583 23.6251 15.4583ZM11.3751 27.7083C13.6302 27.7083 15.4584 25.8802 15.4584 23.625C15.4584 21.3698 13.6302 19.5417 11.3751 19.5417C9.11992 19.5417 7.29175 21.3698 7.29175 23.625C7.29175 25.8802 9.11992 27.7083 11.3751 27.7083Z" fill="#C1C7D0"/>
<path fill-rule="evenodd" clip-rule="evenodd" d="M11.3751 15.4583C13.6302 15.4583 15.4584 13.6302 15.4584 11.375C15.4584 9.11984 13.6302 7.29167 11.3751 7.29167C9.11992 7.29167 7.29175 9.11984 7.29175 11.375C7.29175 13.6302 9.11992 15.4583 11.3751 15.4583Z" fill="#C1C7D0"/>
</svg>
